# xmcd
#
# Track frame offsets: 
#        150
#        25989
#        49675
#        83040
#        102808
#        124979
#        145727
#        169008
#        188724
#        211770
#        234255
#        257040
#
# Disc length: 3776 seconds
#
# Revision: 0
# Processed by: cddbd v1.5.2PL0 Copyright (c) Steve Scherf et al.
# Submitted via: ExactAudioCopy v0.99pb4
#
DISCID=970ebe0c
DTITLE=Cam Ly - Quoc Dai - Lau Dai Tinh Ai
DYEAR=2006
DGENRE=Vietnamese
TTITLE0=bong dien dien
TTITLE1=ve mien tay
TTITLE2=ben cau ngo mong
TTITLE3=con duong mang ten anh
TTITLE4=lau dai tinh ai
TTITLE5=quen cay cau dua
TTITLE6=chieu nuoc lu
TTITLE7=cho vua long em
TTITLE8=cau chuyen dau nam
TTITLE9=don xuan nay nho xuan xua
TTITLE10=vong co buon
TTITLE11=dau xot ly con cua (song ca Dan Truong)
EXTD=
EXTT0=
EXTT1=
EXTT2=
EXTT3=
EXTT4=
EXTT5=
EXTT6=
EXTT7=
EXTT8=
EXTT9=
EXTT10=
EXTT11=
PLAYORDER=
